<svg role="img" width="24" height="24" viewBox="0 0 24 24" xmlns="http://www.w3.org/2000/svg">
  <title>TypeScript</title>
  <g stroke="null" id="svg_3">
    <path stroke="null" id="svg_1" d="m5.3321,9.27185l16.08009,0l0,11.88542l-16.08009,0l0,-11.88542z" fill="#fff"/>
    <path stroke="null" id="svg_2"
          d="m1.91667,12l0,10.08333l20.16666,0l0,-20.16666l-20.16666,0l0,10.08333zm16.2511,-0.80667a2.51035,2.51035 0 0 1 1.26163,0.726a3.32024,3.32024 0 0 1 0.484,0.64533c0,0.02581 -0.8712,0.61468 -1.40199,0.9438c-0.01936,0.01291 -0.0968,-0.07099 -0.18231,-0.19844a1.14385,1.14385 0 0 0 -0.94703,-0.56951c-0.61145,-0.04195 -1.00511,0.27911 -1.00188,0.80667a0.73891,0.73891 0 0 0 0.08712,0.37752c0.13391,0.27911 0.38397,0.44528 1.16805,0.78408c1.44393,0.62113 2.06184,1.03092 2.44581,1.61333c0.42915,0.64533 0.52433,1.68755 0.23393,2.45872c-0.32267,0.83893 -1.1132,1.40844 -2.23124,1.5972a6.18229,6.18229 0 0 1 -1.53589,-0.01613a3.71067,3.71067 0 0 1 -2.05216,-1.06964c-0.18553,-0.20489 -0.54692,-0.73891 -0.52433,-0.77763a1.50685,1.50685 0 0 1 0.18553,-0.11777l0.74697,-0.41301l0.57919,-0.33557l0.121,0.17908a2.70717,2.70717 0 0 0 0.76472,0.73245c0.64533,0.3388 1.52621,0.29201 1.96181,-0.10003a0.87604,0.87604 0 0 0 0.11132,-1.11643c-0.16133,-0.22425 -0.484,-0.41301 -1.38585,-0.80667c-1.0406,-0.44851 -1.48911,-0.726 -1.89889,-1.16805a2.65877,2.65877 0 0 1 -0.55337,-1.00833a4.03333,4.03333 0 0 1 -0.03549,-1.29067c0.21457,-1.00511 0.968,-1.70691 2.06829,-1.91503a5.10781,5.10781 0 0 1 1.53105,0.04195l0,-0.00323zm-4.73352,0.84539l0,0.82603l-2.61844,0l0,7.45844l-1.85695,0l0,-7.46005l-2.62489,0l0,-0.80667a7.93598,7.93598 0 0 1 0.01936,-0.83409c0.01291,-0.01452 1.61333,-0.01452 3.54933,-0.01452l3.52191,0l0.00968,0.83087z"
          fill="#007acc"/>
  </g>
</svg>
