<svg role="img" width="24" height="24" viewBox="0 0 24 24" xmlns="http://www.w3.org/2000/svg">
  <path stroke="null" id="svg_1" d="m21.51615,12.97373l-2.87092,-1.64621l-0.49515,-0.21415l-11.7446,0.08028l0,5.96262l15.11067,0l0,-4.18255z" fill="#FFF"/>
  <path stroke="null" id="svg_2"
        d="m16.28953,16.60754c0.1405,-0.48189 0.08691,-0.92346 -0.14731,-1.25141c-0.21415,-0.30107 -0.57544,-0.47508 -1.01056,-0.49515l-8.23785,-0.10699c-0.05358,0 -0.10036,-0.0267 -0.12724,-0.06684s-0.03351,-0.09373 -0.02007,-0.14731c0.0267,-0.08028 0.10699,-0.1405 0.19408,-0.14731l8.31151,-0.10699c0.98367,-0.04677 2.05444,-0.84317 2.42917,-1.82022l0.47508,-1.23797c0.02007,-0.05358 0.0267,-0.10699 0.01344,-0.16057c-0.53511,-2.42291 -2.69654,-4.22968 -5.27965,-4.22968c-2.3824,0 -4.40333,1.53922 -5.12608,3.67395a2.45826,2.45826 0 0 0 -1.70642,-0.47508c-1.14443,0.1138 -2.06107,1.03063 -2.17487,2.17487c-0.0267,0.29444 -0.00663,0.58225 0.06021,0.8498c-1.86736,0.05358 -3.35963,1.57936 -3.35963,3.4598c0,0.16738 0.01344,0.33458 0.03351,0.50196a0.1648,0.1648 0 0 0 0.16057,0.1405l15.2044,0c0.08691,0 0.16738,-0.06021 0.19408,-0.14731l0.11361,-0.40805z"
        fill="#F38020"/>
  <path stroke="null" id="svg_3"
        d="m18.91297,11.31408c-0.07366,0 -0.15394,0 -0.2276,0.00663c-0.05358,0 -0.10036,0.04014 -0.12043,0.09373l-0.32114,1.11754c-0.1405,0.48189 -0.08691,0.92346 0.14731,1.25141c0.21415,0.30107 0.57544,0.47508 1.01056,0.49515l1.75338,0.10699c0.05358,0 0.10036,0.0267 0.12724,0.06684c0.0267,0.04014 0.03351,0.10036 0.02007,0.14731c-0.0267,0.08028 -0.10699,0.1405 -0.19408,0.14731l-1.8274,0.10717c-0.99049,0.04677 -2.05444,0.84317 -2.42917,1.82022l-0.13387,0.34121c-0.0267,0.06684 0.02007,0.13387 0.09373,0.13387l6.27713,0c0.07366,0 0.1405,-0.04677 0.16057,-0.12043c0.10699,-0.38817 0.16738,-0.7964 0.16738,-1.2179c0,-2.47612 -2.02093,-4.49706 -4.50368,-4.49706"
        fill="#FAAE40"/>

</svg>
