<svg role="img" width="24" height="24" viewBox="0 0 24 24" xmlns="http://www.w3.org/2000/svg">
  <g stroke="null" id="svg_1" fill="#0080FF" fill-rule="nonzero">
    <path stroke="null" id="svg_2"
          d="m11.9599,22.91898l0,-4.24859c4.52198,0 8.01068,-4.4416 6.26633,-9.14071c-0.6461,-1.73804 -2.00255,-3.15431 -3.81163,-3.79807c-4.6512,-1.67355 -9.10893,1.80253 -9.10893,6.24413l-4.26378,0c0,-7.08091 6.91243,-12.68128 14.47119,-10.36374c3.29475,1.02978 5.87867,3.60483 6.91243,6.88766c2.32572,7.53142 -3.29475,14.41932 -10.46562,14.41932z"/>
    <path stroke="null" id="svg_3"
          d="m12.02439,18.67039l-4.26378,0l0,-4.1841l4.26378,0l0,4.1841zm-4.26378,3.28307l-3.23026,0l0,-3.28307l3.23026,0l0,3.28307zm-3.23026,-3.28307l-2.71314,0l0,-2.70356l2.71314,0l0,2.70356z"/>
  </g>
</svg>
