<svg role="img" width="24" height="24" viewBox="0 0 24 24" xmlns="http://www.w3.org/2000/svg">
  <path stroke="null" id="svg_1"
        d="m15.13197,8.05281l0.07555,0l-0.03778,-0.03778l2.64429,-2.64429l0,-0.05666c-2.22876,-1.96433 -5.30747,-2.64429 -8.15953,-1.79434c-2.85206,0.84995 -5.04304,3.11649 -5.83633,5.98744c0.03778,-0.01889 0.09444,-0.03778 0.1511,-0.03778c0.98217,-0.64219 2.15321,-1.01994 3.38092,-1.01994c0.41553,0 0.81218,0.03778 1.20882,0.11333c0.01889,-0.01889 0.03778,-0.01889 0.05666,-0.01889c1.6999,-1.86989 4.57085,-2.09655 6.53518,-0.49108l-0.01889,0z"
        fill="#ea4535"/>
  <path stroke="null" id="svg_2"
        d="m20.32612,9.4694c-0.43442,-1.60546 -1.34103,-3.05982 -2.60652,-4.17421l-2.70096,2.68207c1.13327,0.9255 1.79434,2.3232 1.75657,3.77756l0,0.4722c3.19204,0 3.19204,4.75973 0,4.75973l-4.7975,0l0,3.77756l-0.01889,0l0.01889,0.03778l4.7975,0c2.75762,0.01889 5.19415,-1.75657 6.00632,-4.36308c0.81218,-2.60652 -0.18888,-5.43969 -2.45542,-6.9696z"
        fill="#557ebf"/>
  <path stroke="null" id="svg_3"
        d="m7.27464,20.82097l4.96749,0l0,-3.81534l-4.96749,0c-0.35887,0 -0.69885,-0.07555 -1.01994,-0.20777l-2.87095,2.75762l0,0.03778c1.13327,0.81218 2.49319,1.2466 3.90978,1.2466l-0.01889,-0.01889z"
        fill="#36a852"/>
  <path stroke="null" id="svg_4"
        d="m7.5013,8.35502c-2.81428,0.01889 -5.30747,1.75657 -6.21409,4.30642c-0.90661,2.56874 0,5.38303 2.22876,7.04515l2.9465,-2.81428c-1.62435,-0.69885 -2.00211,-2.73873 -0.75551,-3.92866c1.2466,-1.20882 3.36203,-0.83106 4.09865,0.71774l2.9465,-2.81428c-1.2466,-1.56769 -3.19204,-2.49319 -5.25081,-2.4743l0,-0.03778z"
        fill="#f9bc15"/>
</svg>
