<svg role="img" width="24" height="24" viewBox="0 0 24 24" xmlns="http://www.w3.org/2000/svg">
  <g stroke="null" id="svg_1" fill="#E434AA">
    <path stroke="null" id="svg_2" d="m4.21891,17.6046l-0.78477,-0.45329l8.74332,-15.14275l0.78425,0.45312l-8.74281,15.14292zm0,0"/>
    <path stroke="null" id="svg_3" d="m3.25399,15.94175l17.48596,0l0,0.90589l-17.48596,0l0,-0.90589zm0,0"/>
    <path stroke="null" id="svg_4"
          d="m12.34653,21.50045l-8.74588,-5.04946l0.45312,-0.78511l8.74605,5.05014l-0.45329,0.78443zm0,0m7.59773,-13.16105l-8.74588,-5.05014l0.45312,-0.78425l8.74605,5.04929l-0.45329,0.78511zm0,0"/>
    <path stroke="null" id="svg_5" d="m4.05581,8.33599l-0.45329,-0.78494l8.74674,-5.04946l0.45312,0.78443l-8.74656,5.04997zm0,0"/>
    <path stroke="null" id="svg_6"
          d="m19.78305,17.6046l-8.74264,-15.14292l0.78443,-0.45312l8.74332,15.14275l-0.78511,0.45329zm0,0m-15.8354,-10.65474l0.90641,0l0,10.10029l-0.90623,0l-0.00017,-10.10029zm0,0"/>
    <path stroke="null" id="svg_7" d="m19.14602,6.94986l0.90623,0l0,10.10029l-0.90623,0l0,-10.10029zm0,0"/>
    <path stroke="null" id="svg_8" d="m12.19265,21.11711l-0.3958,-0.68582l7.60644,-4.39213l0.3958,0.68582l-7.60644,4.39213zm0,0"/>
    <path stroke="null" id="svg_9"
          d="m21.25312,17.3446c-0.52375,0.91169 -1.69202,1.22287 -2.60355,0.69912c-0.91169,-0.52443 -1.22287,-1.69271 -0.69912,-2.6044c0.52443,-0.91169 1.69271,-1.22287 2.6044,-0.69895c0.91698,0.52972 1.22816,1.69254 0.69827,2.60423m-15.20878,-8.78393c-0.52443,0.91169 -1.69271,1.22287 -2.6044,0.69895c-0.91169,-0.52443 -1.22287,-1.69254 -0.69895,-2.60423c0.52443,-0.91169 1.69254,-1.22287 2.60423,-0.69912c0.91169,0.52989 1.22287,1.69271 0.69912,2.6044m-3.29738,8.78393c-0.5246,-0.91169 -0.21325,-2.07451 0.69827,-2.6044c0.91169,-0.52375 2.07451,-0.21257 2.6044,0.69912c0.52375,0.91169 0.21257,2.07451 -0.69912,2.6044c-0.91698,0.52375 -2.0798,0.21257 -2.60355,-0.69912m15.20878,-8.78393c-0.52375,-0.91169 -0.21257,-2.07451 0.69912,-2.6044c0.91169,-0.52375 2.07451,-0.21257 2.60423,0.69912c0.52375,0.91169 0.21274,2.07451 -0.69895,2.6044c-0.91169,0.52375 -2.07997,0.21257 -2.6044,-0.69912m-5.9557,14.12853a1.90357,1.90357 0 0 1 -1.90528,-1.90528a1.90357,1.90357 0 0 1 1.90528,-1.90528a1.90357,1.90357 0 0 1 1.90528,1.90528c0,1.04835 -0.85164,1.90528 -1.90528,1.90528m0,-17.56785a1.90357,1.90357 0 0 1 -1.90528,-1.90528a1.90357,1.90357 0 0 1 1.90528,-1.90528a1.90357,1.90357 0 0 1 1.90528,1.90528a1.90357,1.90357 0 0 1 -1.90528,1.90528"/>
  </g>
</svg>
