<svg role="img" width="24" height="24" viewBox="0 0 24 24" xmlns="http://www.w3.org/2000/svg">
  <path stroke="null" id="svg_1"
        d="m21.10444,17.81341c-1.18008,-0.03215 -2.08126,0.07772 -2.85177,0.40253c-0.21889,0.09234 -0.56829,0.09492 -0.60405,0.36917c0.12036,0.12604 0.13911,0.31449 0.23471,0.46959c0.18398,0.29747 0.49452,0.69674 0.7717,0.90582c0.30297,0.22869 0.61506,0.47303 0.9397,0.67094c0.5774,0.35198 1.22204,0.55316 1.77795,0.90582c0.32773,0.20806 0.65323,0.46994 0.97288,0.70447c0.15819,0.11607 0.26428,0.29644 0.46976,0.36917l0,-0.03336c-0.10798,-0.13756 -0.13584,-0.32636 -0.23488,-0.46994l-0.43623,-0.43623c-0.42643,-0.56605 -0.9679,-1.06333 -1.54341,-1.47618c-0.45893,-0.32945 -1.48598,-0.77446 -1.67736,-1.30836l-0.03353,-0.03353c0.32533,-0.0368 0.70619,-0.15441 1.00659,-0.23505c0.5045,-0.13515 0.95535,-0.10025 1.47618,-0.23471l0.70447,-0.20135l0,-0.13412c-0.26325,-0.27013 -0.45102,-0.62778 -0.738,-0.87229c-0.75141,-0.63965 -1.57126,-1.27878 -2.41553,-1.81182c-0.46839,-0.29541 -1.04699,-0.48747 -1.54341,-0.738c-0.16696,-0.08443 -0.46031,-0.12827 -0.57052,-0.26858c-0.26085,-0.3322 -0.4027,-0.75348 -0.60371,-1.14053c-0.4211,-0.81108 -0.83464,-1.69679 -1.20777,-2.55017c-0.25448,-0.58187 -0.42076,-1.15549 -0.73817,-1.67753c-1.52346,-2.50477 -3.16316,-4.01637 -5.70336,-5.50235c-0.54061,-0.31604 -1.19143,-0.4407 -1.87922,-0.60405c-0.36883,-0.02218 -0.738,-0.04471 -1.107,-0.06723c-0.22542,-0.09388 -0.45962,-0.36952 -0.67094,-0.50329c-0.84152,-0.53166 -3.00016,-1.68802 -3.6233,-0.16765c-0.39359,0.95964 0.58824,1.89573 0.93918,2.38217c0.24657,0.3408 0.5621,0.72339 0.73817,1.107c0.11589,0.25225 0.13584,0.50518 0.23505,0.77188c0.24365,0.65719 0.45601,1.37215 0.77153,1.9793c0.1594,0.30744 0.33513,0.63105 0.53682,0.90582c0.12346,0.16868 0.33547,0.24296 0.36883,0.50329c-0.20703,0.28991 -0.21889,0.74007 -0.3353,1.10735c-0.52444,1.65328 -0.32653,3.70841 0.43623,4.932c0.23385,0.37588 0.78529,1.18146 1.54324,0.87229c0.66303,-0.26996 0.51499,-1.107 0.70464,-1.84535c0.04282,-0.16731 0.01651,-0.29042 0.10059,-0.40253l0,0.03353l0.60405,1.20777c0.44707,0.71995 1.24009,1.47222 1.91241,1.97981c0.34854,0.26325 0.62297,0.71823 1.07365,0.87229l0,-0.0337l-0.03353,0c-0.08735,-0.13601 -0.22405,-0.19241 -0.33547,-0.30177c-0.26257,-0.25741 -0.55453,-0.5774 -0.77153,-0.87229c-0.61145,-0.83 -1.15171,-1.7384 -1.644,-2.68394c-0.23523,-0.45171 -0.43967,-0.94967 -0.63776,-1.40929c-0.07635,-0.17711 -0.07531,-0.44517 -0.23454,-0.53682c-0.21717,0.33668 -0.53682,0.60904 -0.70464,1.00659c-0.26841,0.63552 -0.30297,1.41067 -0.40253,2.21435c-0.05881,0.02098 -0.03267,0.00653 -0.06723,0.03336c-0.46736,-0.11263 -0.63139,-0.59357 -0.80523,-1.00641c-0.43916,-1.04373 -0.52083,-2.72401 -0.13429,-3.92541c0.10007,-0.31105 0.55195,-1.28979 0.369,-1.57711c-0.08735,-0.28647 -0.37554,-0.45222 -0.53665,-0.67111c-0.19963,-0.27065 -0.39875,-0.62692 -0.53717,-0.93953c-0.35937,-0.81349 -0.52719,-1.72705 -0.90565,-2.54965c-0.18106,-0.39325 -0.48696,-0.79131 -0.73817,-1.14071c-0.27804,-0.3874 -0.58961,-0.67266 -0.80523,-1.14088c-0.07669,-0.16645 -0.18072,-0.43297 -0.06723,-0.60405c0.03611,-0.11538 0.08735,-0.16352 0.20135,-0.20118c0.19465,-0.15011 0.73663,0.04987 0.93918,0.13395c0.53803,0.22353 0.98716,0.43641 1.44299,0.73835c0.21855,0.14512 0.44002,0.42557 0.70447,0.50329l0.30194,0c0.47234,0.1085 1.00143,0.03353 1.44282,0.16765c0.77996,0.23694 1.47893,0.60577 2.11359,1.00659c1.93373,1.22118 3.51497,2.95923 4.59653,5.03276c0.17401,0.33392 0.24933,0.65237 0.40253,1.00659c0.30916,0.7141 0.69863,1.44884 1.00624,2.14729c0.3071,0.69674 0.60629,1.39983 1.04029,1.97964c0.22818,0.30469 1.10924,0.46822 1.50988,0.63758c0.28062,0.11847 0.74058,0.24228 1.00659,0.40236c0.50776,0.30641 0.99988,0.67111 1.47635,1.00676c0.2378,0.16765 0.96979,0.53579 1.00624,0.83894zm-14.99717,-12.78282c-0.24606,-0.00464 -0.42007,0.02682 -0.60405,0.06689l0,0.03353l0.03353,0c0.11744,0.24107 0.32464,0.39651 0.46959,0.60405c0.11177,0.23505 0.2237,0.46976 0.33564,0.70447l0.03336,-0.03319c0.20789,-0.14667 0.30297,-0.38069 0.30177,-0.73835c-0.08322,-0.08752 -0.09543,-0.19722 -0.16765,-0.30177c-0.0956,-0.13945 -0.28114,-0.21872 -0.40219,-0.33564z"
        fill="#00618A"/>
</svg>
