<svg role="img" width="24" height="24" viewBox="0 0 24 24" xmlns="http://www.w3.org/2000/svg">
  <g stroke="null" id="svg_4">
    <path stroke="null" id="svg_1" fill="#00c58e"
          d="m7.484,20.21111l-0.05186,-0.10353c-0.10353,-0.20725 -0.10353,-0.4145 -0.05168,-0.67361l-5.59502,0l8.28908,-14.71273l3.47102,6.26862l1.1396,-0.829l-3.47102,-6.26862c-0.05168,-0.10353 -0.46618,-0.7251 -1.1396,-0.7251c-0.31097,0 -0.77714,0.10353 -1.13978,0.77696l-8.39262,14.86831c-0.05186,0.15557 -0.4145,0.829 -0.10372,1.39871c0.20725,0.31097 0.51822,0.62175 1.2435,0.62175l7.04558,0c-0.72528,0 -1.08792,-0.31078 -1.2435,-0.62157l0,-0.00018z"/>
    <path stroke="null" id="svg_2" fill="#108775"
          d="m23.44005,18.86353l-6.7348,-12.12257c-0.10353,-0.10353 -0.46618,-0.77714 -1.13978,-0.77714c-0.31078,0 -0.77696,0.15539 -1.1396,0.77714l-0.88068,1.45057l0,2.7976l2.02046,-3.47102l6.68294,11.91532l-2.53849,0a1.19146,1.19146 0 0 1 -0.10372,0.72528l-0.05186,0.05186c-0.31078,0.56971 -1.08792,0.62157 -1.19146,0.62157l3.9372,0c0.15539,0 0.88068,-0.05168 1.24332,-0.62157c0.15539,-0.25911 0.25911,-0.72528 -0.10353,-1.34703z"/>
    <path stroke="null" id="svg_3" fill="#2f495e"
          d="m19.76251,20.21111l0,-0.05186l0.05186,-0.10353c0.05168,-0.20725 0.10353,-0.4145 0.05168,-0.62175l-0.20707,-0.62157l-5.28405,-9.22143l-0.77714,-1.39871l-0.05186,0l-0.77714,1.39871l-5.28405,9.22125l-0.20707,0.62175a1.2435,1.2435 0 0 0 0.10353,0.77714c0.20725,0.31078 0.51803,0.62175 1.24332,0.62175l9.84318,0c0.15539,0 0.93253,-0.05186 1.29517,-0.62175l-0.00037,0zm-6.21677,-9.22143l4.81806,8.44429l-9.63593,0l4.81787,-8.44429z"/>
  </g>
</svg>
