<svg role="img" width="24" height="24" viewBox="0 0 24 24" xmlns="http://www.w3.org/2000/svg">
  <g stroke="null" id="svg_1" fill="#61DAFB">
    <circle stroke="null" id="svg_2" r="2.12764" cy="12" cx="12"/>
    <path stroke="null" id="svg_3"
          d="m20.08128,8.49127c-0.4106,-0.14931 -0.83986,-0.29862 -1.28778,-0.42926c0.11198,-0.44792 0.2053,-0.89585 0.27995,-1.32511c0.39193,-2.46358 -0.03733,-4.19928 -1.23179,-4.87117c-0.35461,-0.2053 -0.74654,-0.29862 -1.19446,-0.29862c-1.30644,0 -2.96749,0.9705 -4.6472,2.59422c-1.67971,-1.62372 -3.34076,-2.59422 -4.6472,-2.59422c-0.44792,0 -0.83986,0.09332 -1.19446,0.29862c-1.19446,0.69055 -1.62372,2.42625 -1.23179,4.87117c0.07465,0.42926 0.16797,0.87718 0.27995,1.32511c-0.44792,0.13064 -0.87718,0.26129 -1.28778,0.42926c-2.33293,0.89585 -3.60205,2.12764 -3.60205,3.50873s1.28778,2.61289 3.60205,3.50873c0.4106,0.14931 0.83986,0.29862 1.28778,0.42926c-0.11198,0.44792 -0.2053,0.89585 -0.27995,1.32511c-0.39193,2.46358 0.03733,4.19928 1.23179,4.87117c0.35461,0.2053 0.74654,0.29862 1.19446,0.29862c1.32511,0 2.98615,-0.9705 4.6472,-2.59422c1.67971,1.62372 3.34076,2.59422 4.6472,2.59422c0.44792,0 0.83986,-0.09332 1.19446,-0.29862c1.19446,-0.69055 1.62372,-2.42625 1.23179,-4.87117c-0.07465,-0.42926 -0.16797,-0.87718 -0.27995,-1.32511c0.44792,-0.13064 0.87718,-0.26129 1.28778,-0.42926c2.33293,-0.89585 3.60205,-2.12764 3.60205,-3.50873s-1.26912,-2.61289 -3.60205,-3.50873zm-2.76219,-5.69236c0.7652,0.44792 1.02649,1.82902 0.70921,3.78868c-0.05599,0.39193 -0.14931,0.80253 -0.26129,1.23179c-0.9705,-0.22396 -1.99699,-0.37327 -3.07947,-0.46659c-0.63456,-0.89585 -1.28778,-1.69838 -1.941,-2.42625c1.3811,-1.36243 2.78086,-2.29561 3.91933,-2.29561c0.24263,0 0.46659,0.05599 0.65322,0.16797zm-2.09031,11.06744c-0.33594,0.59723 -0.72788,1.19446 -1.13847,1.79169c-0.69055,0.05599 -1.3811,0.07465 -2.09031,0.07465c-0.72788,0 -1.41842,-0.01866 -2.09031,-0.07465c-0.4106,-0.59723 -0.78387,-1.19446 -1.11981,-1.79169c-0.35461,-0.61589 -0.69055,-1.25045 -0.98916,-1.86635c0.29862,-0.61589 0.63456,-1.25045 0.98916,-1.86635c0.33594,-0.59723 0.72788,-1.19446 1.13847,-1.79169c0.69055,-0.05599 1.3811,-0.07465 2.09031,-0.07465c0.72788,0 1.41842,0.01866 2.09031,0.07465c0.4106,0.59723 0.78387,1.19446 1.11981,1.79169c0.35461,0.61589 0.69055,1.25045 0.98916,1.86635c-0.31728,0.61589 -0.63456,1.23179 -0.98916,1.86635zm1.54907,-0.61589c0.27995,0.65322 0.50391,1.28778 0.70921,1.92234c-0.63456,0.14931 -1.30644,0.26129 -2.01565,0.35461c0.22396,-0.35461 0.46659,-0.72788 0.67188,-1.11981c0.22396,-0.39193 0.42926,-0.78387 0.63456,-1.15714zm-4.77785,5.0578c-0.44792,-0.48525 -0.87718,-1.00783 -1.28778,-1.54907c0.42926,0.01866 0.85852,0.03733 1.28778,0.03733c0.42926,0 0.85852,-0.01866 1.28778,-0.03733c-0.4106,0.54124 -0.83986,1.06382 -1.28778,1.54907zm-3.47141,-2.79952c-0.70921,-0.09332 -1.3811,-0.2053 -2.01565,-0.35461c0.2053,-0.61589 0.42926,-1.26912 0.70921,-1.92234c0.2053,0.37327 0.4106,0.7652 0.63456,1.13847c0.22396,0.4106 0.44792,0.7652 0.67188,1.13847zm-1.30644,-4.75918c-0.27995,-0.65322 -0.50391,-1.28778 -0.70921,-1.92234c0.63456,-0.14931 1.30644,-0.26129 2.01565,-0.35461c-0.22396,0.35461 -0.46659,0.72788 -0.67188,1.11981c-0.22396,0.39193 -0.42926,0.78387 -0.63456,1.15714zm4.77785,-5.0578c0.44792,0.48525 0.87718,1.00783 1.28778,1.54907c-0.42926,-0.01866 -0.85852,-0.03733 -1.28778,-0.03733c-0.42926,0 -0.85852,0.01866 -1.28778,0.03733c0.4106,-0.54124 0.83986,-1.06382 1.28778,-1.54907zm4.14329,3.91933l-0.67188,-1.11981c0.70921,0.09332 1.3811,0.2053 2.01565,0.35461c-0.2053,0.61589 -0.42926,1.26912 -0.70921,1.92234c-0.2053,-0.39193 -0.4106,-0.78387 -0.63456,-1.15714zm-10.17159,-3.02348c-0.31728,-1.95966 -0.05599,-3.34076 0.70921,-3.78868c0.18663,-0.11198 0.4106,-0.16797 0.65322,-0.16797c1.11981,0 2.51957,0.91451 3.91933,2.29561c-0.65322,0.70921 -1.30644,1.5304 -1.941,2.42625c-1.08248,0.09332 -2.10897,0.26129 -3.07947,0.46659c-0.11198,-0.42926 -0.18663,-0.83986 -0.26129,-1.23179zm-4.60988,5.41241c0,-0.87718 1.06382,-1.81036 2.93016,-2.5009c0.37327,-0.14931 0.78387,-0.27995 1.19446,-0.39193c0.29862,0.93317 0.67188,1.92234 1.11981,2.9115c-0.44792,0.98916 -0.83986,1.95966 -1.11981,2.89284c-2.57556,-0.74654 -4.12463,-1.86635 -4.12463,-2.9115zm5.31909,9.20109c-0.7652,-0.44792 -1.02649,-1.82902 -0.70921,-3.78868c0.05599,-0.39193 0.14931,-0.80253 0.26129,-1.23179c0.9705,0.22396 1.99699,0.37327 3.07947,0.46659c0.63456,0.89585 1.28778,1.69838 1.941,2.42625c-1.3811,1.36243 -2.78086,2.29561 -3.91933,2.29561c-0.24263,0 -0.46659,-0.05599 -0.65322,-0.16797zm11.34739,-3.78868c0.31728,1.95966 0.05599,3.34076 -0.70921,3.78868c-0.18663,0.11198 -0.4106,0.16797 -0.65322,0.16797c-1.11981,0 -2.51957,-0.91451 -3.91933,-2.29561c0.65322,-0.70921 1.30644,-1.5304 1.941,-2.42625c1.08248,-0.09332 2.10897,-0.26129 3.07947,-0.46659c0.11198,0.42926 0.18663,0.83986 0.26129,1.23179zm1.67971,-2.9115c-0.37327,0.14931 -0.78387,0.27995 -1.19446,0.39193c-0.29862,-0.93317 -0.67188,-1.92234 -1.11981,-2.9115c0.44792,-0.98916 0.83986,-1.95966 1.11981,-2.89284c2.57556,0.74654 4.12463,1.86635 4.12463,2.9115c0,0.87718 -1.08248,1.81036 -2.93016,2.5009z"/>
  </g>
</svg>
