<svg role="img" width="24" height="24" viewBox="0 0 24 24" xmlns="http://www.w3.org/2000/svg">
  <path stroke="null" id="svg_1"
        d="m22.37958,17.22076c-1.20239,0.62811 -7.42969,3.17646 -8.7577,3.87636c-1.32801,0.6999 -2.0638,0.68195 -3.10468,0.17946s-7.66299,-3.15852 -8.86538,-3.73279c-0.59222,-0.28714 -0.89731,-0.52044 -0.89731,-0.75374l0,-2.27916s8.61413,-1.88434 10.01393,-2.36889c1.3998,-0.50249 1.8664,-0.52044 3.05084,-0.08973s8.27316,1.70488 9.43965,2.13559l0,2.24326c0,0.2333 -0.26919,0.48454 -0.87936,0.78963z"
        fill="#A41E11"/>
  <path stroke="null" id="svg_2"
        d="m22.37958,14.95955c-1.20239,0.62811 -7.42969,3.17646 -8.7577,3.87636c-1.32801,0.6999 -2.0638,0.68195 -3.10468,0.17946c-1.04087,-0.50249 -7.66299,-3.17646 -8.86538,-3.75074c-1.18444,-0.57428 -1.22034,-0.96909 -0.05384,-1.41774c1.1665,-0.4666 7.75272,-3.05084 9.15252,-3.53538c1.3998,-0.50249 1.8664,-0.52044 3.05084,-0.08973s7.37585,2.88932 8.54235,3.32003c1.20239,0.43071 1.23828,0.78963 0.03589,1.41774z"
        fill="#D82C20"/>
  <path stroke="null" id="svg_3"
        d="m22.37958,13.52386c-1.20239,0.62811 -7.42969,3.17646 -8.7577,3.87636c-1.32801,0.68195 -2.0638,0.68195 -3.10468,0.17946c-1.04087,-0.50249 -7.66299,-3.17646 -8.86538,-3.75074c-0.59222,-0.28714 -0.89731,-0.52044 -0.89731,-0.75374l0,-2.27916s8.61413,-1.88434 10.01393,-2.36889c1.3998,-0.50249 1.8664,-0.52044 3.05084,-0.08973s8.27316,1.70488 9.43965,2.13559l0,2.24326c0,0.2333 -0.26919,0.48454 -0.87936,0.80757z"
        fill="#A41E11"/>
  <path stroke="null" id="svg_4"
        d="m22.37958,11.2447c-1.20239,0.62811 -7.42969,3.17646 -8.7577,3.87636c-1.32801,0.68195 -2.0638,0.68195 -3.10468,0.17946c-1.04087,-0.50249 -7.66299,-3.17646 -8.86538,-3.75074s-1.22034,-0.96909 -0.05384,-1.41774c1.1665,-0.4666 7.75272,-3.05084 9.15252,-3.53538c1.3998,-0.50249 1.8664,-0.52044 3.05084,-0.08973s7.37585,2.88932 8.54235,3.32003c1.20239,0.43071 1.23828,0.78963 0.03589,1.41774z"
        fill="#D82C20"/>
  <path stroke="null" id="svg_5"
        d="m22.37958,9.66544c-1.20239,0.62811 -7.42969,3.17646 -8.7577,3.87636c-1.32801,0.68195 -2.0638,0.68195 -3.10468,0.17946c-1.04087,-0.48454 -7.66299,-3.15852 -8.86538,-3.73279c-0.59222,-0.28714 -0.91525,-0.52044 -0.91525,-0.75374l0,-2.27916s8.61413,-1.88434 10.01393,-2.36889c1.3998,-0.50249 1.8664,-0.52044 3.05084,-0.08973s8.27316,1.70488 9.43965,2.13559l0,2.24326c0.01795,0.2333 -0.25125,0.4666 -0.86141,0.78963z"
        fill="#A41E11"/>
  <path stroke="null" id="svg_6"
        d="m22.37958,7.38629c-1.20239,0.62811 -7.42969,3.17646 -8.7577,3.87636c-1.32801,0.68195 -2.0638,0.68195 -3.10468,0.17946s-7.66299,-3.15852 -8.86538,-3.73279s-1.22034,-0.96909 -0.05384,-1.41774c1.1665,-0.4666 7.75272,-3.05084 9.15252,-3.53538c1.3998,-0.50249 1.8664,-0.52044 3.05084,-0.08973s7.37585,2.88932 8.54235,3.32003c1.20239,0.43071 1.23828,0.78963 0.03589,1.3998z"
        fill="#D82C20"/>
  <path stroke="null" id="svg_7"
        d="m14.94989,5.19686l-1.93818,0.21535l-0.44865,1.04087l-0.6999,-1.1665l-2.24326,-0.19741l1.66899,-0.61017l-0.50249,-0.9332l1.57926,0.61017l1.47158,-0.48454l-0.39481,0.96909l1.50747,0.55633zm-2.49451,5.0967l-3.64306,-1.50747l5.22232,-0.78963l-1.57926,2.2971z"
        fill="#fff"/>
  <ellipse stroke="null" id="svg_8" ry="1.07677" rx="2.78165" cy="6.86585" cx="7.41253" fill="#fff"/>
  <path stroke="null" id="svg_9" d="m17.26494,5.484l3.08673,1.22034l-3.08673,1.22034l0,-2.44067z" fill="#7A0C00"/>
  <path stroke="null" id="svg_10" d="m13.85518,6.84791l3.40976,-1.3639l0,2.44067l-0.34098,0.14357l-3.06878,-1.22034z" fill="#AD2115"/>
</svg>
