<svg role="img" width="24" height="24" viewBox="0 0 24 24" xmlns="http://www.w3.org/2000/svg">
  <path stroke="null" id="svg_1"
        d="m12,0.8c-6.18995,0 -11.2,5.01005 -11.2,11.2s5.01005,11.2 11.2,11.2s11.2,-5.01005 11.2,-11.2s-5.01005,-11.2 -11.2,-11.2zm6.04473,6.48039c-0.52642,0.01815 -0.87131,-0.29044 -0.88946,-0.7624c0,-0.18152 0.0363,-0.32674 0.16337,-0.50827c0.10891,-0.21783 0.14522,-0.25413 0.14522,-0.34489c-0.01815,-0.29044 -0.45381,-0.30859 -0.58088,-0.30859c-1.68817,0.05446 -2.12382,2.3235 -2.48687,4.17504l-0.18152,0.98023c0.96207,0.14522 1.65186,-0.0363 2.03306,-0.27229c0.54457,-0.34489 -0.14522,-0.70794 -0.07261,-1.10729c0.09076,-0.39935 0.45381,-0.59903 0.74425,-0.61718c0.4175,-0.01815 0.70794,0.4175 0.68979,0.85316c-0.01815,0.70794 -0.96207,1.70632 -2.86807,1.65186c-0.23598,0 -0.43566,-0.01815 -0.63533,-0.0363l-0.36305,1.97861c-0.32674,1.48849 -0.74425,3.53971 -2.26904,5.31864c-1.30697,1.5611 -2.63209,1.79708 -3.23112,1.81523c-1.10729,0.0363 -1.85154,-0.56272 -1.86969,-1.34327c-0.01815,-0.7624 0.65348,-1.1799 1.08914,-1.19805c0.59903,-0.01815 0.99838,0.4175 1.01653,0.90762c0.01815,0.4175 -0.19968,0.54457 -0.34489,0.63533c-0.09076,0.07261 -0.23598,0.16337 -0.23598,0.32674c0,0.07261 0.09076,0.23598 0.32674,0.23598c0.47196,-0.01815 0.78055,-0.25413 0.99838,-0.39935c1.08914,-0.90762 1.50664,-2.48687 2.05122,-5.33679l0.10891,-0.68979c0.18152,-0.92577 0.39935,-1.97861 0.70794,-3.01329c-0.7624,-0.58088 -1.21621,-1.28882 -2.25089,-1.5611c-0.70794,-0.19968 -1.12545,-0.0363 -1.43404,0.34489c-0.36305,0.45381 -0.23598,1.03468 0.10891,1.37958l0.56272,0.63533c0.70794,0.81686 1.08914,1.43404 0.94392,2.2872c-0.19968,1.32512 -1.81523,2.3598 -3.72123,1.77893c-1.63371,-0.50827 -1.92415,-1.65186 -1.72447,-2.2872c0.16337,-0.56272 0.61718,-0.67164 1.05284,-0.52642c0.47196,0.14522 0.65348,0.70794 0.50827,1.1436c-0.01815,0.05446 -0.0363,0.12707 -0.09076,0.21783c-0.05446,0.12707 -0.14522,0.21783 -0.19968,0.36305c-0.10891,0.34489 0.36305,0.58088 0.68979,0.68979c0.72609,0.21783 1.43404,-0.16337 1.61556,-0.74425c0.16337,-0.54457 -0.18152,-0.92577 -0.30859,-1.07099l-0.68979,-0.74425c-0.30859,-0.34489 -1.01653,-1.32512 -0.67164,-2.43241c0.12707,-0.4175 0.39935,-0.87131 0.7987,-1.16175c0.83501,-0.63533 1.76078,-0.72609 2.63209,-0.47196c1.12545,0.32674 1.67002,1.07099 2.37796,1.65186c0.39935,-1.1436 0.94392,-2.2872 1.76078,-3.23112c0.74425,-0.87131 1.72447,-1.48849 2.86807,-1.54295c1.1436,-0.0363 1.99676,0.47196 2.03306,1.28882c-0.01815,0.36305 -0.21783,1.03468 -0.90762,1.05284z"
        fill="#fff"/>
</svg>
