<svg role="img" width="24" height="24" viewBox="0 0 24 24" xmlns="http://www.w3.org/2000/svg">
  <defs>
    <linearGradient y2="0.85775" y1="-0.03321" x2="0.57637" x1="-0.00829" id="a">
      <stop stop-color="#41d1ff" offset="0"/>
      <stop stop-color="#bd34fe" offset="1"/>
    </linearGradient>
    <linearGradient y2="0.8903" y1="0.0224" x2="0.51051" x1="0.27987" id="b">
      <stop stop-color="#ffea83" offset="0"/>
      <stop stop-color="#ffdd35" offset="0.083"/>
      <stop stop-color="#ffa800" offset="1"/>
    </linearGradient>
  </defs>
  <g stroke="null" id="svg_3">
    <path stroke="null" id="svg_1"
          d="m22.6339,4.45439l-10.05693,17.98385c-0.20782,0.37134 -0.74129,0.37345 -0.95191,0.0042l-10.25652,-17.98595c-0.22988,-0.40303 0.11415,-0.89063 0.57094,-0.80922l10.06779,1.7993a0.541,0.541 0 0 0 0.19434,0l9.85699,-1.79649c0.45486,-0.08281 0.80099,0.40076 0.57531,0.80432zm0,0"
          fill="url(#a)"/>
    <path stroke="null" id="svg_2"
          d="m16.80269,1.2872l-7.44194,1.45806a0.27312,0.27312 0 0 0 -0.22025,0.25159l-0.45818,7.73292a0.27365,0.27365 0 0 0 0.3344,0.28258l2.07224,-0.47884a0.27347,0.27347 0 0 1 0.32915,0.32145l-0.61576,3.0147a0.27347,0.27347 0 0 0 0.34753,0.31602l1.27948,-0.3892c0.19837,-0.06023 0.3892,0.11415 0.34753,0.31724l-0.9787,4.73538c-0.06093,0.29624 0.333,0.45766 0.49723,0.20379l0.10942,-0.16948l6.06476,-12.10327c0.1019,-0.20309 -0.07371,-0.4342 -0.29588,-0.39113l-2.13335,0.41179a0.27277,0.27277 0 0 1 -0.31392,-0.34403l1.39188,-4.82555a0.27312,0.27312 0 0 0 -0.31567,-0.34403zm0,0"
          fill="url(#b)"/>
  </g>
</svg>
