<svg role="img" width="24" height="24" viewBox="0 0 24 24" xmlns="http://www.w3.org/2000/svg">
  <g stroke="null" id="svg_5">
    <path stroke="null" id="svg_1"
          d="m16.0661,14.82945c-0.14077,-1.85773 -0.7397,-3.06179 -1.03151,-3.74414c-0.29165,-0.68251 -0.74003,-1.3212 -0.74036,-1.32022c-0.00081,0.00293 -0.40374,2.17382 -1.12797,3.74463c-0.12106,0.26232 -0.28154,0.58981 -0.44366,0.85343c-0.50003,0.88308 -1.2254,1.72755 -1.65798,2.58359c-0.42883,0.84854 -0.50834,1.68877 -0.46842,2.6442c0.04024,0.96064 0.26215,1.9027 0.4751,2.83662c0.80325,-0.17319 1.50222,-0.46973 2.10701,-0.84887c1.5915,-0.99779 2.55312,-2.59352 2.82651,-4.31276c0,0 0.01336,-0.07006 0.01923,-0.15511c0.12334,-1.3287 0.08244,-1.74808 0.04204,-2.28135z"
          fill="#40B3D8"/>
    <path stroke="null" id="svg_2"
          d="m16.0661,14.82945c-0.14077,-1.85773 -0.7397,-3.06179 -1.03151,-3.74414c-0.29165,-0.68251 -0.74003,-1.3212 -0.74036,-1.32022l0,0.00049l0,-0.00065l-0.10705,-0.15902c-2.34701,-3.29461 -6.84796,-4.93956 -10.65092,-3.41502c-0.18313,2.30937 0.88748,6.28259 4.79341,7.39101c1.57896,0.4857 2.84346,0.35975 4.39309,0.78109l0,0.00016s1.57505,0.54908 2.49137,1.3722c0.41221,0.37034 0.82508,0.8575 0.80439,1.43705c0.13051,-1.3792 0.08863,-1.80119 0.04774,-2.34294l-0.00016,0z"
          fill="#83C933"/>
    <path stroke="null" id="svg_3"
          d="m14.36054,7.83175c-0.55494,-1.6236 -0.31967,-2.71165 0.69555,-4.2256c0.48423,-0.72243 1.32039,-1.56038 2.05308,-2.0337c2.95637,1.85252 4.04963,5.30338 2.9624,8.50822c-0.79135,2.33186 -1.53383,3.3096 -3.41095,5.70875c0.21882,-2.56941 -0.68545,-4.35089 -1.57342,-6.33033c-0.22598,-0.50345 -0.53848,-1.07697 -0.72667,-1.62735z"
          fill="#F18A2A"/>
    <path stroke="null" id="svg_4"
          d="m16.01852,17.17239c0.02069,-0.57954 -0.39201,-1.0667 -0.80422,-1.43705c-0.91648,-0.82312 -2.49153,-1.3722 -2.49153,-1.3722c0.16212,-0.26362 0.3226,-0.59127 0.4435,-0.85359c0.72439,-1.57065 1.12715,-3.74153 1.12797,-3.74446c0.00033,-0.00098 0.44871,0.63771 0.74036,1.32006c0.29165,0.68251 0.8909,1.88657 1.03167,3.74414c0.0409,0.54191 0.08277,0.9639 -0.04774,2.34294l0,0.00016z"
          fill="#7FB93C"/>
  </g>
</svg>
